<?xml version="1.0" standalone="no"?>
<!DOCTYPE svg PUBLIC "-//W3C//DTD SVG 20010904//EN"
 "http://www.w3.org/TR/2001/REC-SVG-20010904/DTD/svg10.dtd">
<svg version="1.0" xmlns="http://www.w3.org/2000/svg"
 width="64.000000pt" height="64.000000pt" viewBox="0 0 64.000000 64.000000"
 preserveAspectRatio="xMidYMid meet">

<g transform="translate(0.000000,64.000000) scale(0.100000,-0.100000)"
fill="#000000" stroke="none">
<path d="M203 448 c-85 -84 -157 -164 -160 -176 -4 -17 1 -31 19 -48 21 -22
28 -23 52 -14 57 21 117 -39 96 -96 -9 -23 -7 -31 11 -51 13 -12 31 -23 43
-23 25 0 324 295 333 328 5 20 -11 41 -98 128 -61 61 -112 104 -123 104 -12 0
-81 -61 -173 -152z m285 39 c56 -56 102 -107 102 -113 0 -5 -16 -25 -35 -44
l-35 -34 -30 29 c-16 16 -30 24 -30 19 0 -6 11 -21 25 -34 l26 -24 -118 -118
c-65 -65 -123 -118 -129 -118 -23 0 -39 34 -39 81 0 67 -27 94 -94 94 -47 0
-81 16 -81 39 0 6 53 64 118 129 l118 118 24 -26 c13 -14 28 -25 34 -25 5 0
-3 14 -19 30 l-29 30 34 35 c19 19 39 35 45 35 6 0 56 -46 113 -103z"/>
<path d="M370 434 c0 -13 58 -69 65 -63 2 3 -11 21 -30 39 -19 19 -35 29 -35
24z"/>
</g>
</svg>
