<?xml version="1.0" standalone="no"?>
<!DOCTYPE svg PUBLIC "-//W3C//DTD SVG 20010904//EN"
 "http://www.w3.org/TR/2001/REC-SVG-20010904/DTD/svg10.dtd">
<svg version="1.0" xmlns="http://www.w3.org/2000/svg"
 width="590.000000pt" height="589.000000pt" viewBox="0 0 590.000000 589.000000"
 preserveAspectRatio="xMidYMid meet">

<g transform="translate(0.000000,589.000000) scale(0.100000,-0.100000)"
fill="#000000" stroke="none">
<path d="M320 4619 l0 -1090 23 7 c12 3 48 19 79 35 522 262 910 735 1057
1290 53 198 63 282 68 577 l5 272 -616 0 -616 0 0 -1091z"/>
<path d="M1720 5461 c0 -287 -13 -412 -64 -613 -61 -241 -159 -465 -293 -668
-98 -149 -173 -238 -309 -370 -135 -130 -252 -221 -401 -310 -57 -34 -103 -63
-103 -65 0 -6 562 -1450 571 -1468 9 -16 107 -17 1829 -17 1722 0 1820 1 1829
18 9 18 571 1461 571 1467 0 2 -42 29 -94 59 -207 122 -456 338 -599 519 -256
324 -418 712 -467 1117 -5 46 -10 196 -10 332 l0 248 -1230 0 -1230 0 0 -249z
m620 -356 l0 -175 -175 0 -175 0 0 175 0 175 175 0 175 0 0 -175z m780 0 l0
-175 -170 0 -170 0 0 175 0 175 170 0 170 0 0 -175z m790 0 l0 -175 -175 0
-175 0 0 175 0 175 175 0 175 0 0 -175z m-270 -1315 c0 -3 -234 -102 -520
-221 l-520 -217 0 438 0 438 520 -217 c286 -119 520 -218 520 -221z m-2090
-1225 l0 -175 -175 0 -175 0 0 175 0 175 175 0 175 0 0 -175z m790 0 l0 -175
-175 0 -175 0 0 175 0 175 175 0 175 0 0 -175z m780 0 l0 -175 -170 0 -170 0
0 175 0 175 170 0 170 0 0 -175z m790 0 l0 -175 -175 0 -175 0 0 175 0 175
175 0 175 0 0 -175z m790 0 l0 -175 -175 0 -175 0 0 175 0 175 175 0 175 0 0
-175z"/>
<path d="M4353 5438 c5 -295 15 -377 68 -577 127 -478 438 -905 856 -1175 74
-47 278 -156 294 -156 5 0 9 484 9 1090 l0 1090 -616 0 -616 0 5 -272z"/>
<path d="M322 2735 l3 -780 303 -3 c211 -1 302 1 302 9 0 16 -590 1532 -601
1544 -5 5 -8 -302 -7 -770z"/>
<path d="M5569 3505 c-11 -17 -599 -1533 -599 -1544 0 -17 599 -15 605 2 8 19
1 1553 -6 1542z"/>
<path d="M1258 1495 c-125 -46 -228 -180 -228 -297 l0 -38 346 0 346 0 -4 53
c-9 113 -103 235 -211 275 -68 26 -190 29 -249 7z"/>
<path d="M2850 1501 c-57 -18 -108 -52 -153 -100 -54 -57 -83 -118 -93 -191
l-7 -50 353 0 353 0 -7 50 c-10 73 -39 134 -93 191 -72 77 -129 102 -238 106
-49 1 -101 -1 -115 -6z"/>
<path d="M4408 1495 c-125 -46 -228 -180 -228 -297 l0 -38 346 0 346 0 -4 53
c-9 113 -103 235 -211 275 -68 26 -190 29 -249 7z"/>
<path d="M845 976 c-70 -22 -120 -53 -164 -101 -72 -78 -85 -119 -89 -277 l-4
-138 2362 0 2362 0 -4 138 c-3 113 -7 145 -25 183 -25 55 -84 123 -134 155
-85 53 -105 55 -645 52 l-499 -3 -62 -29 c-64 -29 -137 -97 -166 -153 -9 -16
-21 -52 -28 -78 l-12 -48 -14 54 c-26 103 -96 184 -200 232 -48 22 -51 22
-573 22 -522 0 -525 0 -573 -22 -104 -48 -174 -129 -200 -232 l-14 -54 -12 48
c-16 63 -34 98 -79 147 -47 52 -95 82 -162 102 -46 14 -124 16 -539 15 -363 0
-496 -4 -526 -13z"/>
</g>
</svg>
